# xmcd
#
# Track frame offsets:
#	180
#	10650
#	25976
#	36567
#	49424
#	63060
#	74125
#	85902
#	97108
#	108576
#	118814
#	132102
#	144011
#	156319
#	168193
#	181358
#	193144
#	207406
#	218559
#	231694
#	243461
#	253460
#	262088
#	277464
#	287931
#	301565
#	315960
#
# Disc length: 4389
#
# Revision: 2
# Processed by: cddbd v1.5.1PL0 Copyright (c) Steve Scherf et al.
# Submitted via: CDValet v3.30 - Copyright (c) 1997 Greg Leichner
# Normalized: r1:DSETVAR1,TDELIM( - )
#
DISCID=a611231b
DTITLE=Various Artist - Lost Soul Treasures (Volume 2)
DYEAR=1900
DGENRE=
TTITLE0=Oo Wee Baby, I Love You - Fred Hughes
TTITLE1=Oh Boy - Duke Earl
TTITLE2=Do Do Do Bah Ah - Bert Keyes
TTITLE3=For Your Love - Sam and Bill
TTITLE4=Follow The Leader - Wyley Terry
TTITLE5=Follow The Leader (Part 2) - Wyley Terry
TTITLE6=No Man Is An Island - The Van Dykes
TTITLE7=I Believe I'll Go Back Home - The Ovations
TTITLE8=I Don't Love You No More - Jimmy Norman
TTITLE9=You Can't Sit Down (Part 2) - The Phil Upchurch Combo
TTITLE10=Something I Want To Tell You - Johnny and The Expressions
TTITLE11=Try Some Of Mine - Little Richard
TTITLE12=I Miss You Baby - Marv Johnson
TTITLE13=I Ain't Got To Love Nobody Else - The Masqueraders
TTITLE14=I Really Love You - Chuck-A-Luck
TTITLE15=Why Do Want To Hurt The One That Loves You - The Marvellos
TTITLE16=The Boo Boo Song - King Coleman
TTITLE17=You're On My Mind - Jay Wiggins
TTITLE18=On The Streets Of New York City - Harvey Scales and The 7 Sounds
TTITLE19=You've Been Untrue - The Delphonics
TTITLE20=Spreadin' Honey - The Soul Runners
TTITLE21=I Do The Jerk - Bill Pickney
TTITLE22=For Your Precious Love - Oscar Toney, Jr.
TTITLE23=If I Didn't Love You - The Profiles
TTITLE24=I Wanna Testify - The Parliaments
TTITLE25=Are You Lonely For Me - Freddie Scott
TTITLE26=You Better Go - Derek Martin
EXTD=
EXTT0=
EXTT1=
EXTT2=
EXTT3=
EXTT4=
EXTT5=
EXTT6=
EXTT7=
EXTT8=
EXTT9=
EXTT10=
EXTT11=
EXTT12=
EXTT13=
EXTT14=
EXTT15=
EXTT16=
EXTT17=
EXTT18=
EXTT19=
EXTT20=
EXTT21=
EXTT22=
EXTT23=
EXTT24=
EXTT25=
EXTT26=
PLAYORDER=
